# xmcd
# 
# Track frame offsets:
#     187
#     18182
#     36087
#     55185
# 
# Disc length: 984
# 
# Revision: 1
# Processed by: cddbd v1.5.2PL0 Copyright (c) Steve Scherf et al.
# Submitted via: fre:ac v1.0.31
# 
DISCID=2603d604
DTITLE=Mary J Blige - Love No Limit
DYEAR=1993
DGENRE=R&B
TTITLE0=Love No Limit (Puff Daddy Mix)
TTITLE1=Love No Limit (Bad Boy Mix)
TTITLE2=Love No Limit (Jazz)
TTITLE3=Love No Limit (Hip Hop)
EXTD=
EXTT0=
EXTT1=
EXTT2=
EXTT3=
PLAYORDER=
